<svg width="40" height="40" viewBox="0 0 40 40" fill="none" xmlns="http://www.w3.org/2000/svg">
<rect x="0.25" y="0.25" width="39.5" height="39.5" rx="6.58333" fill="white"/>
<path d="M16.5996 22.9656C17.9433 21.794 18.2144 22.1974 18.2387 22.9656" stroke="#00C385" stroke-width="0.854167" stroke-linecap="round" stroke-linejoin="round"/>
<path d="M13.6021 22.9458C17.0864 19.047 20.3211 18.6799 20.3307 22.9775" stroke="#00C385" stroke-width="0.854167" stroke-linecap="round" stroke-linejoin="round"/>
<path d="M10.5889 23.0007C17.3795 14.4099 22.5702 17.0935 22.5628 23.0155" stroke="#00C385" stroke-width="0.854167" stroke-linecap="round" stroke-linejoin="round"/>
<path d="M24.9043 23.016C25.6466 13.8741 16.4678 12.1988 10.4166 19.4725M9.87071 20.1588C9.47183 20.6537 9.25983 20.9602 9.13721 21.252" stroke="#00C385" stroke-width="0.854167" stroke-linecap="round" stroke-linejoin="round"/>
<path d="M27.3554 23.0463C28.2603 13.7804 18.6863 8.41831 11.0107 16.1463M20.1327 21.4072L22.3029 20.8606" stroke="#00C385" stroke-width="0.854167" stroke-linecap="round" stroke-linejoin="round"/>
<path d="M29.6659 23.0414H31.8199C31.746 17.7894 28.9147 14.3915 24.1391 12.301C26.3936 14.0133 30.098 17.0389 29.6659 23.0414ZM7.51372 23.1042L5 23.0724C5.65595 22.8826 6.2949 21.0883 7.68509 21.0277C7.42655 21.7199 7.35564 22.4128 7.51372 23.1042ZM10.5105 15.0482C9.5207 16.1325 8.77981 17.3417 8.37206 18.7172C7.18648 18.0893 7.61418 15.8326 6.95159 15.4389C7.62452 15.7876 8.85663 14.2245 10.5105 15.0482ZM12.1652 13.4563C13.1838 12.3882 14.3443 11.5653 15.8187 11.2861C14.981 10.1271 13.0501 10.3258 12.5404 9.88111C12.5522 11.063 11.9081 12.1629 12.1659 13.4563H12.1652ZM18.0509 10.7239C19.5113 10.379 20.92 10.4144 22.2969 10.6929C21.9903 9.05231 20.8491 8.63718 20.236 7.80469C19.8445 8.53893 18.0096 9.35074 18.0509 10.7239ZM27.8399 9.88111C26.4578 10.5755 25.6076 10.2549 24.623 11.3644C26.0412 11.7322 27.2586 12.4015 28.2609 13.3935C28.5897 12.1644 27.9211 11.0312 27.8399 9.88111ZM29.8528 15.0334C30.9638 16.0269 31.5902 17.3248 32.0393 18.7327C32.7935 17.7118 32.8223 16.3852 33.5063 15.4699C32.3355 15.5926 31.1019 14.6013 29.8528 15.0334ZM32.6162 20.9967C32.8464 21.6688 32.9418 22.3797 32.8969 23.0887L35.2858 23.0259C34.7044 22.1232 33.8224 21.4414 32.6162 20.9967Z" stroke="#00C385" stroke-width="0.854167" stroke-linecap="round" stroke-linejoin="round"/>
<path d="M6.78409 32.0881C6.50758 32.0881 6.25852 32.0388 6.03693 31.9403C5.81723 31.84 5.64299 31.6922 5.5142 31.4972C5.38731 31.3021 5.32386 31.0616 5.32386 30.7756C5.32386 30.5294 5.36932 30.3258 5.46023 30.1648C5.55114 30.0038 5.67519 29.875 5.83239 29.7784C5.98958 29.6818 6.16667 29.6089 6.36364 29.5597C6.5625 29.5085 6.76799 29.4716 6.98011 29.4489C7.2358 29.4223 7.44318 29.3987 7.60227 29.3778C7.76136 29.3551 7.87689 29.321 7.94886 29.2756C8.02273 29.2282 8.05966 29.1553 8.05966 29.0568V29.0398C8.05966 28.8258 7.99621 28.66 7.86932 28.5426C7.74242 28.4252 7.55966 28.3665 7.32102 28.3665C7.06913 28.3665 6.86932 28.4214 6.72159 28.5312C6.57576 28.6411 6.47727 28.7708 6.42614 28.9205L5.46591 28.7841C5.54167 28.5189 5.66667 28.2973 5.84091 28.1193C6.01515 27.9394 6.22822 27.8049 6.48011 27.7159C6.73201 27.625 7.01042 27.5795 7.31534 27.5795C7.52557 27.5795 7.73485 27.6042 7.94318 27.6534C8.15152 27.7027 8.34186 27.7841 8.5142 27.8977C8.68655 28.0095 8.82481 28.1619 8.92898 28.3551C9.03504 28.5483 9.08807 28.7898 9.08807 29.0795V32H8.09943V31.4006H8.06534C8.00284 31.5218 7.91477 31.6354 7.80114 31.7415C7.68939 31.8456 7.5483 31.9299 7.37784 31.9943C7.20928 32.0568 7.01136 32.0881 6.78409 32.0881ZM7.05114 31.3324C7.25758 31.3324 7.43655 31.2917 7.58807 31.2102C7.73958 31.1269 7.85606 31.017 7.9375 30.8807C8.02083 30.7443 8.0625 30.5956 8.0625 30.4347V29.9205C8.0303 29.947 7.97538 29.9716 7.89773 29.9943C7.82197 30.017 7.73674 30.0369 7.64205 30.054C7.54735 30.071 7.4536 30.0862 7.3608 30.0994C7.26799 30.1127 7.1875 30.1241 7.11932 30.1335C6.96591 30.1544 6.8286 30.1884 6.70739 30.2358C6.58617 30.2831 6.49053 30.3494 6.42045 30.4347C6.35038 30.518 6.31534 30.6259 6.31534 30.7585C6.31534 30.9479 6.38447 31.0909 6.52273 31.1875C6.66098 31.2841 6.83712 31.3324 7.05114 31.3324ZM11.3778 32.0881C11.1013 32.0881 10.8523 32.0388 10.6307 31.9403C10.411 31.84 10.2367 31.6922 10.108 31.4972C9.98106 31.3021 9.91761 31.0616 9.91761 30.7756C9.91761 30.5294 9.96307 30.3258 10.054 30.1648C10.1449 30.0038 10.2689 29.875 10.4261 29.7784C10.5833 29.6818 10.7604 29.6089 10.9574 29.5597C11.1563 29.5085 11.3617 29.4716 11.5739 29.4489C11.8295 29.4223 12.0369 29.3987 12.196 29.3778C12.3551 29.3551 12.4706 29.321 12.5426 29.2756C12.6165 29.2282 12.6534 29.1553 12.6534 29.0568V29.0398C12.6534 28.8258 12.59 28.66 12.4631 28.5426C12.3362 28.4252 12.1534 28.3665 11.9148 28.3665C11.6629 28.3665 11.4631 28.4214 11.3153 28.5312C11.1695 28.6411 11.071 28.7708 11.0199 28.9205L10.0597 28.7841C10.1354 28.5189 10.2604 28.2973 10.4347 28.1193C10.6089 27.9394 10.822 27.8049 11.0739 27.7159C11.3258 27.625 11.6042 27.5795 11.9091 27.5795C12.1193 27.5795 12.3286 27.6042 12.5369 27.6534C12.7453 27.7027 12.9356 27.7841 13.108 27.8977C13.2803 28.0095 13.4186 28.1619 13.5227 28.3551C13.6288 28.5483 13.6818 28.7898 13.6818 29.0795V32H12.6932V31.4006H12.6591C12.5966 31.5218 12.5085 31.6354 12.3949 31.7415C12.2831 31.8456 12.142 31.9299 11.9716 31.9943C11.803 32.0568 11.6051 32.0881 11.3778 32.0881ZM11.6449 31.3324C11.8513 31.3324 12.0303 31.2917 12.1818 31.2102C12.3333 31.1269 12.4498 31.017 12.5312 30.8807C12.6146 30.7443 12.6562 30.5956 12.6562 30.4347V29.9205C12.6241 29.947 12.5691 29.9716 12.4915 29.9943C12.4157 30.017 12.3305 30.0369 12.2358 30.054C12.1411 30.071 12.0473 30.0862 11.9545 30.0994C11.8617 30.1127 11.7813 30.1241 11.7131 30.1335C11.5597 30.1544 11.4223 30.1884 11.3011 30.2358C11.1799 30.2831 11.0843 30.3494 11.0142 30.4347C10.9441 30.518 10.9091 30.6259 10.9091 30.7585C10.9091 30.9479 10.9782 31.0909 11.1165 31.1875C11.2547 31.2841 11.4309 31.3324 11.6449 31.3324ZM16.3352 32.0767C15.9924 32.0767 15.6856 31.9886 15.4148 31.8125C15.1439 31.6364 14.9299 31.3807 14.7727 31.0455C14.6155 30.7102 14.5369 30.303 14.5369 29.8239C14.5369 29.339 14.6165 28.9299 14.7756 28.5966C14.9366 28.2614 15.1534 28.0085 15.4261 27.8381C15.6989 27.6657 16.0028 27.5795 16.3381 27.5795C16.5938 27.5795 16.804 27.6231 16.9688 27.7102C17.1335 27.7955 17.2642 27.8987 17.3608 28.0199C17.4574 28.1392 17.5322 28.2519 17.5852 28.358H17.6278V26.1818H18.6591V32H17.6477V31.3125H17.5852C17.5322 31.4186 17.4555 31.5312 17.3551 31.6506C17.2547 31.768 17.1222 31.8684 16.9574 31.9517C16.7926 32.035 16.5852 32.0767 16.3352 32.0767ZM16.6222 31.233C16.84 31.233 17.0256 31.1742 17.179 31.0568C17.3324 30.9375 17.4489 30.7718 17.5284 30.5597C17.608 30.3475 17.6477 30.1004 17.6477 29.8182C17.6477 29.536 17.608 29.2907 17.5284 29.0824C17.4508 28.8741 17.3352 28.7121 17.1818 28.5966C17.0303 28.4811 16.8438 28.4233 16.6222 28.4233C16.393 28.4233 16.2017 28.483 16.0483 28.6023C15.8949 28.7216 15.7794 28.8864 15.7017 29.0966C15.6241 29.3068 15.5852 29.5473 15.5852 29.8182C15.5852 30.0909 15.6241 30.3343 15.7017 30.5483C15.7813 30.7604 15.8977 30.928 16.0511 31.0511C16.2064 31.1723 16.3968 31.233 16.6222 31.233ZM20.7834 29.4432V32H19.755V26.1818H20.7607V28.3778H20.8118C20.9141 28.1316 21.0722 27.9375 21.2862 27.7955C21.5021 27.6515 21.7768 27.5795 22.1101 27.5795C22.4131 27.5795 22.6773 27.643 22.9027 27.7699C23.1281 27.8968 23.3023 28.0824 23.4254 28.3267C23.5504 28.571 23.6129 28.8693 23.6129 29.2216V32H22.5845V29.3807C22.5845 29.0871 22.5088 28.8589 22.3572 28.696C22.2076 28.5312 21.9974 28.4489 21.7266 28.4489C21.5447 28.4489 21.3819 28.4886 21.2379 28.5682C21.0959 28.6458 20.9841 28.7585 20.9027 28.9062C20.8232 29.054 20.7834 29.233 20.7834 29.4432ZM25.9169 32.0881C25.6404 32.0881 25.3913 32.0388 25.1697 31.9403C24.95 31.84 24.7758 31.6922 24.647 31.4972C24.5201 31.3021 24.4567 31.0616 24.4567 30.7756C24.4567 30.5294 24.5021 30.3258 24.593 30.1648C24.6839 30.0038 24.808 29.875 24.9652 29.7784C25.1224 29.6818 25.2995 29.6089 25.4964 29.5597C25.6953 29.5085 25.9008 29.4716 26.1129 29.4489C26.3686 29.4223 26.576 29.3987 26.7351 29.3778C26.8942 29.3551 27.0097 29.321 27.0817 29.2756C27.1555 29.2282 27.1925 29.1553 27.1925 29.0568V29.0398C27.1925 28.8258 27.129 28.66 27.0021 28.5426C26.8752 28.4252 26.6925 28.3665 26.4538 28.3665C26.2019 28.3665 26.0021 28.4214 25.8544 28.5312C25.7086 28.6411 25.6101 28.7708 25.5589 28.9205L24.5987 28.7841C24.6745 28.5189 24.7995 28.2973 24.9737 28.1193C25.148 27.9394 25.361 27.8049 25.6129 27.7159C25.8648 27.625 26.1432 27.5795 26.4482 27.5795C26.6584 27.5795 26.8677 27.6042 27.076 27.6534C27.2843 27.7027 27.4747 27.7841 27.647 27.8977C27.8194 28.0095 27.9576 28.1619 28.0618 28.3551C28.1679 28.5483 28.2209 28.7898 28.2209 29.0795V32H27.2322V31.4006H27.1982C27.1357 31.5218 27.0476 31.6354 26.9339 31.7415C26.8222 31.8456 26.6811 31.9299 26.5107 31.9943C26.3421 32.0568 26.1442 32.0881 25.9169 32.0881ZM26.1839 31.3324C26.3904 31.3324 26.5694 31.2917 26.7209 31.2102C26.8724 31.1269 26.9889 31.017 27.0703 30.8807C27.1536 30.7443 27.1953 30.5956 27.1953 30.4347V29.9205C27.1631 29.947 27.1082 29.9716 27.0305 29.9943C26.9548 30.017 26.8696 30.0369 26.7749 30.054C26.6802 30.071 26.5864 30.0862 26.4936 30.0994C26.4008 30.1127 26.3203 30.1241 26.2521 30.1335C26.0987 30.1544 25.9614 30.1884 25.8402 30.2358C25.719 30.2831 25.6233 30.3494 25.5533 30.4347C25.4832 30.518 25.4482 30.6259 25.4482 30.7585C25.4482 30.9479 25.5173 31.0909 25.6555 31.1875C25.7938 31.2841 25.9699 31.3324 26.1839 31.3324ZM30.5107 32.0881C30.2341 32.0881 29.9851 32.0388 29.7635 31.9403C29.5438 31.84 29.3696 31.6922 29.2408 31.4972C29.1139 31.3021 29.0504 31.0616 29.0504 30.7756C29.0504 30.5294 29.0959 30.3258 29.1868 30.1648C29.2777 30.0038 29.4018 29.875 29.5589 29.7784C29.7161 29.6818 29.8932 29.6089 30.0902 29.5597C30.2891 29.5085 30.4946 29.4716 30.7067 29.4489C30.9624 29.4223 31.1697 29.3987 31.3288 29.3778C31.4879 29.3551 31.6035 29.321 31.6754 29.2756C31.7493 29.2282 31.7862 29.1553 31.7862 29.0568V29.0398C31.7862 28.8258 31.7228 28.66 31.5959 28.5426C31.469 28.4252 31.2862 28.3665 31.0476 28.3665C30.7957 28.3665 30.5959 28.4214 30.4482 28.5312C30.3023 28.6411 30.2038 28.7708 30.1527 28.9205L29.1925 28.7841C29.2682 28.5189 29.3932 28.2973 29.5675 28.1193C29.7417 27.9394 29.9548 27.8049 30.2067 27.7159C30.4586 27.625 30.737 27.5795 31.0419 27.5795C31.2521 27.5795 31.4614 27.6042 31.6697 27.6534C31.8781 27.7027 32.0684 27.7841 32.2408 27.8977C32.4131 28.0095 32.5514 28.1619 32.6555 28.3551C32.7616 28.5483 32.8146 28.7898 32.8146 29.0795V32H31.826V31.4006H31.7919C31.7294 31.5218 31.6413 31.6354 31.5277 31.7415C31.416 31.8456 31.2749 31.9299 31.1044 31.9943C30.9358 32.0568 30.7379 32.0881 30.5107 32.0881ZM30.7777 31.3324C30.9841 31.3324 31.1631 31.2917 31.3146 31.2102C31.4661 31.1269 31.5826 31.017 31.6641 30.8807C31.7474 30.7443 31.7891 30.5956 31.7891 30.4347V29.9205C31.7569 29.947 31.7019 29.9716 31.6243 29.9943C31.5485 30.017 31.4633 30.0369 31.3686 30.054C31.2739 30.071 31.1802 30.0862 31.0874 30.0994C30.9946 30.1127 30.9141 30.1241 30.8459 30.1335C30.6925 30.1544 30.5552 30.1884 30.4339 30.2358C30.3127 30.2831 30.2171 30.3494 30.147 30.4347C30.0769 30.518 30.0419 30.6259 30.0419 30.7585C30.0419 30.9479 30.111 31.0909 30.2493 31.1875C30.3875 31.2841 30.5637 31.3324 30.7777 31.3324ZM33.8487 32V27.6364H34.8459V28.3636H34.8913C34.9709 28.1117 35.1072 27.9176 35.3004 27.7812C35.4955 27.643 35.718 27.5739 35.968 27.5739C36.0249 27.5739 36.0883 27.5767 36.1584 27.5824C36.2304 27.5862 36.29 27.5928 36.3374 27.6023V28.5483C36.2938 28.5331 36.2247 28.5199 36.13 28.5085C36.0372 28.4953 35.9472 28.4886 35.8601 28.4886C35.6726 28.4886 35.504 28.5294 35.3544 28.6108C35.2067 28.6903 35.0902 28.8011 35.005 28.9432C34.9197 29.0852 34.8771 29.2491 34.8771 29.4347V32H33.8487Z" fill="#2BA07B"/>
<rect x="0.25" y="0.25" width="39.5" height="39.5" rx="6.58333" stroke="#CFE5FF" stroke-width="0.5"/>
</svg>
