<svg width="40" height="40" viewBox="0 0 40 40" fill="none" xmlns="http://www.w3.org/2000/svg">
<rect x="0.25" y="0.25" width="39.5" height="39.5" rx="3.75" fill="white"/>
<path d="M13 19L14.5 14.5H25.5L27 19M25.5 24C25.1022 24 24.7206 23.842 24.4393 23.5607C24.158 23.2794 24 22.8978 24 22.5C24 22.1022 24.158 21.7206 24.4393 21.4393C24.7206 21.158 25.1022 21 25.5 21C25.8978 21 26.2794 21.158 26.5607 21.4393C26.842 21.7206 27 22.1022 27 22.5C27 22.8978 26.842 23.2794 26.5607 23.5607C26.2794 23.842 25.8978 24 25.5 24ZM14.5 24C14.1022 24 13.7206 23.842 13.4393 23.5607C13.158 23.2794 13 22.8978 13 22.5C13 22.1022 13.158 21.7206 13.4393 21.4393C13.7206 21.158 14.1022 21 14.5 21C14.8978 21 15.2794 21.158 15.5607 21.4393C15.842 21.7206 16 22.1022 16 22.5C16 22.8978 15.842 23.2794 15.5607 23.5607C15.2794 23.842 14.8978 24 14.5 24ZM26.92 14C26.72 13.42 26.16 13 25.5 13H14.5C13.84 13 13.28 13.42 13.08 14L11 20V28C11 28.2652 11.1054 28.5196 11.2929 28.7071C11.4804 28.8946 11.7348 29 12 29H13C13.2652 29 13.5196 28.8946 13.7071 28.7071C13.8946 28.5196 14 28.2652 14 28V27H26V28C26 28.2652 26.1054 28.5196 26.2929 28.7071C26.4804 28.8946 26.7348 29 27 29H28C28.2652 29 28.5196 28.8946 28.7071 28.7071C28.8946 28.5196 29 28.2652 29 28V20L26.92 14Z" fill="#C6C6C6"/>
<rect x="0.25" y="0.25" width="39.5" height="39.5" rx="3.75" stroke="#CFE5FF" stroke-width="0.5"/>
</svg>
