<svg width="40" height="40" viewBox="0 0 40 40" fill="none" xmlns="http://www.w3.org/2000/svg">
<rect x="0.25" y="0.25" width="39.5" height="39.5" rx="3.75" fill="white"/>
<path d="M20 20.1263C19.0528 20.1263 18.1444 19.7532 17.4746 19.089C16.8048 18.4248 16.4286 17.5239 16.4286 16.5846C16.4286 15.6453 16.8048 14.7445 17.4746 14.0803C18.1444 13.4161 19.0528 13.043 20 13.043C20.9472 13.043 21.8556 13.4161 22.5254 14.0803C23.1952 14.7445 23.5714 15.6453 23.5714 16.5846C23.5714 17.0497 23.4791 17.5103 23.2996 17.94C23.1201 18.3697 22.857 18.7601 22.5254 19.089C22.1937 19.4178 21.8 19.6787 21.3667 19.8567C20.9334 20.0347 20.469 20.1263 20 20.1263ZM20 6.66797C17.3478 6.66797 14.8043 7.71276 12.9289 9.57249C11.0536 11.4322 10 13.9546 10 16.5846C10 24.0221 20 35.0013 20 35.0013C20 35.0013 30 24.0221 30 16.5846C30 13.9546 28.9464 11.4322 27.0711 9.57249C25.1957 7.71276 22.6522 6.66797 20 6.66797Z" fill="#E53935"/>
<rect x="0.25" y="0.25" width="39.5" height="39.5" rx="3.75" stroke="#CFE5FF" stroke-width="0.5"/>
</svg>
