<svg width="40" height="40" viewBox="0 0 40 40" fill="none" xmlns="http://www.w3.org/2000/svg">
<rect x="0.25" y="0.25" width="39.5" height="39.5" rx="3.75" fill="white"/>
<path d="M28 28H12C11.4696 28 10.9609 27.7893 10.5858 27.4142C10.2107 27.0391 10 26.5304 10 26V14C10 13.4696 10.2107 12.9609 10.5858 12.5858C10.9609 12.2107 11.4696 12 12 12H28C28.5304 12 29.0391 12.2107 29.4142 12.5858C29.7893 12.9609 30 13.4696 30 14V26C30 26.5304 29.7893 27.0391 29.4142 27.4142C29.0391 27.7893 28.5304 28 28 28Z" fill="#C6C6C6"/>
<rect x="10" y="17" width="20" height="1" fill="white"/>
<path d="M14.426 25V20.8H15.896C16.224 20.8 16.496 20.856 16.712 20.968C16.928 21.076 17.088 21.226 17.192 21.418C17.3 21.606 17.354 21.82 17.354 22.06C17.354 22.288 17.302 22.498 17.198 22.69C17.098 22.878 16.94 23.028 16.724 23.14C16.508 23.252 16.232 23.308 15.896 23.308H15.062V25H14.426ZM15.062 22.786H15.866C16.166 22.786 16.38 22.722 16.508 22.594C16.64 22.462 16.706 22.284 16.706 22.06C16.706 21.828 16.64 21.648 16.508 21.52C16.38 21.388 16.166 21.322 15.866 21.322H15.062V22.786ZM17.2563 25L18.8043 20.8H19.5003L21.0363 25H20.3643L20.0043 23.974H18.2883L17.9283 25H17.2563ZM18.4683 23.47H19.8243L19.1463 21.556L18.4683 23.47ZM21.652 25V20.8H22.288L24.394 23.962V20.8H25.03V25H24.394L22.288 21.838V25H21.652Z" fill="white"/>
<path d="M10 14C10 12.8954 10.8954 12 12 12H28C29.1046 12 30 12.8954 30 14V17H10V14Z" fill="#9D9D9D"/>
<rect x="0.25" y="0.25" width="39.5" height="39.5" rx="3.75" stroke="#CFE5FF" stroke-width="0.5"/>
</svg>
