<svg width="40" height="40" viewBox="0 0 40 40" fill="none" xmlns="http://www.w3.org/2000/svg">
<rect x="0.25" y="0.25" width="39.5" height="39.5" rx="3.75" fill="white"/>
<path d="M17 19.24V15.5C17 14.837 17.2634 14.2011 17.7322 13.7322C18.2011 13.2634 18.837 13 19.5 13C20.163 13 20.7989 13.2634 21.2678 13.7322C21.7366 14.2011 22 14.837 22 15.5V19.24C23.21 18.43 24 17.06 24 15.5C24 13.01 21.99 11 19.5 11C17.01 11 15 13.01 15 15.5C15 17.06 15.79 18.43 17 19.24ZM26.84 23.87L22.3 21.61C22.13 21.54 21.95 21.5 21.76 21.5H21V15.5C21 14.67 20.33 14 19.5 14C18.67 14 18 14.67 18 15.5V26.24C14.4 25.48 14.46 25.49 14.33 25.49C14.02 25.49 13.74 25.62 13.54 25.82L12.75 26.62L17.69 31.56C17.96 31.83 18.34 32 18.75 32H25.54C26.29 32 26.87 31.45 26.98 30.72L27.73 25.45C27.74 25.38 27.75 25.31 27.75 25.25C27.75 24.63 27.37 24.09 26.84 23.87Z" fill="#C6C6C6"/>
<path d="M17 19.24V15.5C17 14.837 17.2634 14.2011 17.7322 13.7322C18.2011 13.2634 18.837 13 19.5 13C20.163 13 20.7989 13.2634 21.2678 13.7322C21.7366 14.2011 22 14.837 22 15.5V19.24C23.21 18.43 24 17.06 24 15.5C24 13.01 21.99 11 19.5 11C17.01 11 15 13.01 15 15.5C15 17.06 15.79 18.43 17 19.24Z" fill="#9D9D9D"/>
<rect x="0.25" y="0.25" width="39.5" height="39.5" rx="3.75" stroke="#CFE5FF" stroke-width="0.5"/>
</svg>
